<svg width="44" height="44" viewBox="0 0 44 44" fill="none" xmlns="http://www.w3.org/2000/svg">
<mask id="mask0_526_12115" style="mask-type:alpha" maskUnits="userSpaceOnUse" x="0" y="0" width="44" height="44">
<rect width="44" height="44" fill="#D9D9D9"/>
</mask>
<g mask="url(#mask0_526_12115)">
<path d="M16.5 34.8333V16.5H14.6667V34.8333H16.5ZM21.45 38.5H14.6667C13.6583 38.5 12.7951 38.141 12.0771 37.4229C11.359 36.7049 11 35.8417 11 34.8333V16.5C11 15.4917 11.359 14.6285 12.0771 13.9104C12.7951 13.1924 13.6583 12.8333 14.6667 12.8333H25.6667V7.33332C24.6583 7.33332 23.7951 6.9743 23.0771 6.25624C22.359 5.53818 22 4.67499 22 3.66666H29.3333V20.7167C28.6 20.9611 27.966 21.2055 27.4312 21.45C26.8965 21.6944 26.3083 22.0305 25.6667 22.4583V16.5H20.1667V34.8333H20.35C20.4417 35.5667 20.5792 36.2083 20.7625 36.7583C20.9458 37.3083 21.175 37.8889 21.45 38.5Z" fill="#1C1B1F"/>
<path fill-rule="evenodd" clip-rule="evenodd" d="M33 23.8333C35.5361 23.8333 37.6979 24.7271 39.4854 26.5146C41.2729 28.3021 42.1667 30.4639 42.1667 33C42.1667 35.5361 41.2729 37.6979 39.4854 39.4854C37.6979 41.2729 35.5361 42.1667 33 42.1667C30.4639 42.1667 28.3021 41.2729 26.5146 39.4854C24.7271 37.6979 23.8333 35.5361 23.8333 33C23.8333 30.4639 24.7271 28.3021 26.5146 26.5146C28.3021 24.7271 30.4639 23.8333 33 23.8333ZM31.7167 37.125L38.225 30.6167L36.85 29.2417L31.7167 34.375L29.15 31.8083L27.775 33.1833L31.7167 37.125Z" fill="#D8465C"/>
</g>
</svg>
