<svg width="44" height="44" viewBox="0 0 44 44" fill="none" xmlns="http://www.w3.org/2000/svg">
<mask id="mask0_526_12099" style="mask-type:alpha" maskUnits="userSpaceOnUse" x="0" y="0" width="44" height="44">
<rect width="44" height="44" fill="#D9D9D9"/>
</mask>
<g mask="url(#mask0_526_12099)">
<path fill-rule="evenodd" clip-rule="evenodd" d="M18.47 13.6583L12.8325 42.1667H16.6825L19.9825 27.5L23.8325 31.1667V42.1667H27.4991V28.4167L23.6492 24.75L24.7491 19.25C25.6658 20.3194 26.7505 21.2208 28.0034 21.9542C29.2561 22.6875 30.6158 23.2222 32.0825 23.5583V42.1667H34.8325V16.5H32.0825V19.7542C30.952 19.4181 29.9512 18.891 29.0804 18.1729C28.2096 17.4549 27.4991 16.6528 26.9492 15.7667L25.1158 12.8333C24.7491 12.2222 24.2679 11.7639 23.6721 11.4583C23.0762 11.1528 22.4269 11 21.7242 11C21.0214 11 20.3492 11.2215 19.7075 11.6646C19.0659 12.1076 18.6533 12.7722 18.47 13.6583ZM22.1596 9.00625C22.8776 9.7243 23.7408 10.0833 24.7491 10.0833C25.7575 10.0833 26.6207 9.7243 27.3387 9.00625C28.0568 8.2882 28.4158 7.425 28.4158 6.41667C28.4158 5.40833 28.0568 4.54514 27.3387 3.82708C26.6207 3.10903 25.7575 2.75 24.7491 2.75C23.7408 2.75 22.8776 3.10903 22.1596 3.82708C21.4415 4.54514 21.0825 5.40833 21.0825 6.41667C21.0825 7.425 21.4415 8.2882 22.1596 9.00625Z" fill="#1C1B1F"/>
<path d="M9.71596 23.3292L13.6118 24.0625L16.0868 11.5042L13.9785 11.0917C13.0007 10.9083 12.084 11.0993 11.2285 11.6646C10.3729 12.2299 9.85347 13.0014 9.67012 13.9792L8.29512 21.175C8.20345 21.6944 8.29512 22.1604 8.57014 22.5729C8.84511 22.9854 9.22707 23.2375 9.71596 23.3292Z" fill="#D8465C"/>
</g>
</svg>
