<svg width="60" height="60" viewBox="0 0 60 60" fill="none" xmlns="http://www.w3.org/2000/svg">
<path d="M39.7987 6.5625H20.2013C19.1953 7.8075 18.4116 9.25313 17.9316 10.8544L17.8125 11.25H42.1875L42.0684 10.8544C41.5884 9.25313 40.8047 7.8075 39.7987 6.5625Z" fill="#D8465C"/>
<path d="M45.2006 38.1422L44.0625 37.7625V15.9375H45.9375V15C45.9375 13.0303 44.7131 11.3475 42.9881 10.6547L42.9675 10.5853C41.235 4.815 36.0244 0.9375 30 0.9375C23.9756 0.9375 18.765 4.815 17.0325 10.5853L17.0119 10.6547C15.2869 11.3475 14.0625 13.0303 14.0625 15V15.9375H15.9375V28.1709C15.6984 28.1409 15.4556 28.125 15.21 28.125C14.3138 28.125 13.4175 28.3369 12.6159 28.7372L9.05438 30.5175L9.78563 31.9809C10.2347 32.8791 10.8703 33.6328 11.625 34.2244C10.86 34.8216 10.2281 35.5706 9.78563 36.4566L9.05438 37.92L12.3797 39.5822C11.0766 40.8028 10.3125 42.5203 10.3125 44.3663V59.0625H49.6875V44.3663C49.6875 41.5378 47.8847 39.0356 45.2006 38.1422ZM47.8125 44.3663V49.6875H43.1147C43.1156 49.6275 43.125 49.5684 43.125 49.5094C43.125 47.6006 42.5653 45.7519 41.5059 44.1637L41.0925 43.5431L39.5325 44.5828L39.9459 45.2034C40.7991 46.4831 41.25 47.9719 41.25 49.5094C41.25 50.7075 40.9669 51.9084 40.4306 52.98L39.375 55.0913V57.1875H31.1334L34.4316 39.8738C36.2794 39.4959 37.8956 38.8866 39.1697 38.1075L44.6091 39.9206C46.5244 40.5591 47.8125 42.3459 47.8125 44.3663ZM27.5766 38.28L27.5213 38.2894C22.8047 37.7325 19.6875 35.6503 19.6875 33.75C19.6875 32.7291 20.5228 31.7072 21.9975 30.8672C23.8894 33.195 26.7731 34.6875 30 34.6875C33.2269 34.6875 36.1106 33.195 38.0025 30.8672C39.4772 31.7072 40.3125 32.7291 40.3125 33.75C40.3125 35.9672 36.0769 38.4375 30 38.4375C29.1534 38.4375 28.3472 38.385 27.5794 38.2969L27.5766 38.28ZM19.7269 25.1522C18.6178 24.7753 17.8125 23.7347 17.8125 22.5C17.8125 21.2794 18.5991 20.2481 19.6875 19.86V24.375C19.6875 24.6375 19.7072 24.8944 19.7269 25.1522ZM27.9047 15.9375C25.9584 17.0072 23.7863 17.6325 21.5625 17.7722V15.9375H27.9047ZM40.3125 19.86C41.4009 20.2481 42.1875 21.2794 42.1875 22.5C42.1875 23.7347 41.3822 24.7753 40.2731 25.1522C40.2928 24.8944 40.3125 24.6375 40.3125 24.375V19.86ZM32.5247 15.9375H36.8841C35.5922 16.845 34.1203 17.445 32.5575 17.6878C32.6906 17.1122 32.6784 16.5094 32.5247 15.9375ZM21.5625 19.6472C24.8513 19.4625 28.0359 18.3169 30.69 16.3622C30.8747 16.9519 30.7416 17.6203 30.2747 18.0872L28.6744 19.6875H30.9375C33.6909 19.6875 36.2991 18.7763 38.4375 17.1122V24.375C38.4375 29.0278 34.6519 32.8125 30 32.8125C25.3481 32.8125 21.5625 29.0278 21.5625 24.375V19.6472ZM30 40.3125C30.8466 40.3125 31.6697 40.2675 32.4628 40.1831L30.0516 52.8394L27.9038 40.2122C28.5853 40.2741 29.2819 40.3125 30 40.3125ZM40.9069 36.7106C41.7216 35.8247 42.1875 34.8234 42.1875 33.75C42.1875 32.0709 41.0541 30.4997 39.0506 29.3128C39.4247 28.6303 39.7144 27.8972 39.9272 27.1322C40.7709 27.0319 41.5416 26.715 42.1875 26.2266V33.75V37.1372L40.9069 36.7106ZM42.1875 18.7744C41.64 18.36 41.0091 18.0497 40.3125 17.9081V15.9375H42.1875V18.7744ZM30 2.8125C34.9022 2.8125 39.1753 5.79375 40.8919 10.3125H19.1081C20.8247 5.79375 25.0978 2.8125 30 2.8125ZM18.75 12.1875H41.25C42.4725 12.1875 43.515 12.9712 43.9022 14.0625H16.0978C16.485 12.9712 17.5275 12.1875 18.75 12.1875ZM19.6875 15.9375V17.9072C18.9909 18.0497 18.36 18.3591 17.8125 18.7734V15.9375H19.6875ZM17.8125 26.2256C18.4584 26.7141 19.2291 27.0309 20.0728 27.1313C20.2856 27.8962 20.5753 28.6294 20.9494 29.3119C20.4713 29.595 20.0409 29.8988 19.6669 30.2222C19.1513 29.6006 18.5194 29.1028 17.8116 28.7475L17.8125 26.2256ZM13.455 30.4144C13.9969 30.1434 14.6044 30 15.21 30C16.4934 30 17.6831 30.6253 18.4181 31.6725C18.1209 32.1703 17.94 32.6916 17.8641 33.2269L17.5875 33.3487C16.9838 33.6141 16.3425 33.75 15.6825 33.75C13.9641 33.75 12.4125 32.8378 11.5763 31.3538L13.455 30.4144ZM13.4841 35.2369C14.1788 35.4806 14.9156 35.625 15.6825 35.625C16.5141 35.625 17.3213 35.4638 18.09 35.1609C18.2447 35.5556 18.4603 35.9363 18.7369 36.2991L18.4763 36.69C17.7469 37.7841 16.5253 38.4375 15.21 38.4375C14.6044 38.4375 13.9969 38.2941 13.455 38.0231L11.5753 37.0837C12.0216 36.2934 12.6778 35.6616 13.4841 35.2369ZM14.5997 40.2769C14.8022 40.2984 15.0066 40.3125 15.21 40.3125C17.1544 40.3125 18.9581 39.3469 20.0353 37.7297L20.1094 37.6191C21.5456 38.6916 23.5716 39.51 25.9575 39.9487L28.89 57.1875H20.625V55.0913L19.5694 52.98C19.0331 51.9075 18.75 50.7075 18.75 49.5094C18.75 47.9719 19.2009 46.4831 20.0541 45.2034L20.4675 44.5828L18.9075 43.5431L18.4941 44.1637C17.4347 45.7519 16.875 47.5997 16.875 49.5094C16.875 49.5694 16.8844 49.6284 16.8853 49.6875H12.1875V44.3663C12.1875 42.6544 13.1109 41.1038 14.5997 40.2769ZM12.1875 51.5625H17.1056C17.2763 52.3434 17.535 53.1047 17.8922 53.8181L18.75 55.5337V57.1875H12.1875V51.5625ZM41.25 57.1875V55.5337L42.1078 53.8181C42.465 53.1037 42.7238 52.3425 42.8944 51.5625H47.8125V57.1875H41.25Z" fill="#1A1A1A"/>
<path d="M25.3125 22.5C25.8303 22.5 26.25 22.0803 26.25 21.5625C26.25 21.0447 25.8303 20.625 25.3125 20.625C24.7947 20.625 24.375 21.0447 24.375 21.5625C24.375 22.0803 24.7947 22.5 25.3125 22.5Z" fill="#1A1A1A"/>
<path d="M34.6875 22.5C35.2053 22.5 35.625 22.0803 35.625 21.5625C35.625 21.0447 35.2053 20.625 34.6875 20.625C34.1697 20.625 33.75 21.0447 33.75 21.5625C33.75 22.0803 34.1697 22.5 34.6875 22.5Z" fill="#1A1A1A"/>
<path d="M30 30C32.0681 30 33.75 28.3181 33.75 26.25H31.875C31.875 27.2841 31.0341 28.125 30 28.125C28.9659 28.125 28.125 27.2841 28.125 26.25H26.25C26.25 28.3181 27.9319 30 30 30Z" fill="#1A1A1A"/>
</svg>
