<svg width="26" height="26" viewBox="0 0 26 26" fill="none" xmlns="http://www.w3.org/2000/svg">
<path d="M17.9894 6.87851H18.5185M3.17462 9.94729C3.17462 7.57692 3.17462 6.39174 3.636 5.48592C4.0418 4.6895 4.68931 4.04199 5.48573 3.63618C6.39155 3.1748 7.57674 3.1748 9.94711 3.1748H15.4498C17.8201 3.1748 19.0053 3.1748 19.9111 3.63618C20.7075 4.04199 21.3551 4.6895 21.7609 5.48592C22.2222 6.39174 22.2222 7.57692 22.2222 9.94729V15.4499C22.2222 17.8203 22.2222 19.0055 21.7609 19.9113C21.3551 20.7077 20.7075 21.3552 19.9111 21.761C19.0053 22.2224 17.8201 22.2224 15.4498 22.2224H9.94711C7.57674 22.2224 6.39155 22.2224 5.48573 21.761C4.68931 21.3552 4.0418 20.7077 3.636 19.9113C3.17462 19.0055 3.17462 17.8203 3.17462 15.4499V9.94729Z" stroke="#7D7D7D" stroke-width="1.5873" stroke-linecap="round" stroke-linejoin="round"/>
<path d="M16.3619 12.1553C16.4332 12.6365 16.409 13.127 16.2907 13.5988C16.1725 14.0706 15.9624 14.5145 15.6726 14.9052C15.3828 15.2958 15.0188 15.6255 14.6016 15.8755C14.1843 16.1255 13.7219 16.2909 13.2407 16.3622C12.7596 16.4335 12.2691 16.4093 11.7972 16.291C11.3254 16.1728 10.8815 15.9627 10.4909 15.6729C9.70193 15.0876 9.17782 14.2128 9.03385 13.241C8.88987 12.2693 9.13782 11.2801 9.72316 10.4912C10.3085 9.70223 11.1833 9.17813 12.155 9.03415C13.1268 8.89018 14.1159 9.13813 14.9049 9.72346C15.6938 10.3088 16.2179 11.1836 16.3619 12.1553Z" stroke="#7D7D7D" stroke-width="1.5873" stroke-linecap="round" stroke-linejoin="round"/>
</svg>
