<svg width="24" height="25" viewBox="0 0 24 25" fill="none" xmlns="http://www.w3.org/2000/svg">
<path d="M5 12C5 9.17157 5 7.75736 5.87868 6.87868C6.75736 6 8.17157 6 11 6H12.5C15.3284 6 16.7427 6 17.6213 6.87868C18.5 7.75736 18.5 9.17157 18.5 12V13.5C18.5 16.3284 18.5 17.7427 17.6213 18.6213C16.7427 19.5 15.3284 19.5 12.5 19.5H11C8.17157 19.5 6.75736 19.5 5.87868 18.6213C5 17.7427 5 16.3284 5 13.5V12Z" stroke="#D8465C" stroke-width="1.75"/>
<path d="M15.25 9.375C15.25 9.44404 15.194 9.5 15.125 9.5C15.056 9.5 15 9.44404 15 9.375C15 9.30596 15.056 9.25 15.125 9.25C15.194 9.25 15.25 9.30596 15.25 9.375Z" fill="#D8465C" stroke="#1F2655" stroke-width="2.5"/>
<path d="M11.75 15C12.9926 15 14 13.9926 14 12.75C14 11.5074 12.9926 10.5 11.75 10.5C10.5074 10.5 9.5 11.5074 9.5 12.75C9.5 13.9926 10.5074 15 11.75 15Z" stroke="#D8465C" stroke-width="1.75"/>
</svg>
