<svg width="26" height="26" viewBox="0 0 26 26" fill="none" xmlns="http://www.w3.org/2000/svg">
<path d="M8.46563 8.06898V8.59809M3.17462 9.94729C3.17462 7.57692 3.17462 6.39174 3.636 5.48592C4.0418 4.6895 4.68931 4.04199 5.48573 3.63618C6.39155 3.1748 7.57674 3.1748 9.94711 3.1748H15.4498C17.8201 3.1748 19.0053 3.1748 19.9111 3.63618C20.7075 4.04199 21.3551 4.6895 21.7609 5.48592C22.2222 6.39174 22.2222 7.57692 22.2222 9.94729V15.4499C22.2222 17.8203 22.2222 19.0055 21.7609 19.9113C21.3551 20.7077 20.7075 21.3552 19.9111 21.761C19.0053 22.2224 17.8201 22.2224 15.4498 22.2224H9.94711C7.57674 22.2224 6.39155 22.2224 5.48573 21.761C4.68931 21.3552 4.0418 20.7077 3.636 19.9113C3.17462 19.0055 3.17462 17.8203 3.17462 15.4499V9.94729Z" stroke="#7D7D7D" stroke-width="1.5873" stroke-linecap="round" stroke-linejoin="round"/>
<path d="M8.46558 17.3279V11.3755M12.6984 17.3279V14.2855M12.6984 14.2855V11.3755M12.6984 14.2855C12.6984 12.9226 13.9915 12.1691 15.2381 12.1691C16.9312 12.1691 16.9312 13.6242 16.9312 15.2115V17.3279" stroke="#7D7D7D" stroke-width="1.5873" stroke-linecap="round" stroke-linejoin="round"/>
</svg>
