<svg width="44" height="44" viewBox="0 0 44 44" fill="none" xmlns="http://www.w3.org/2000/svg">
<path fill-rule="evenodd" clip-rule="evenodd" d="M16.4567 24.2001C16.6751 25.1888 16.0506 26.1673 15.0619 26.3856C12.4948 26.9527 10.4522 27.8013 9.0997 28.7514C7.7146 29.7245 7.33317 30.5843 7.33317 31.1666C7.33317 31.5826 7.51522 32.1168 8.12455 32.7572C8.74286 33.4069 9.72424 34.0754 11.0772 34.6767C13.7784 35.8772 17.6386 36.6666 21.9998 36.6666C26.3612 36.6666 30.2212 35.8772 32.9225 34.6767C34.2755 34.0754 35.2569 33.4069 35.8751 32.7572C36.4845 32.1168 36.6665 31.5826 36.6665 31.1666C36.6665 30.5843 36.2852 29.7245 34.8999 28.7514C33.5475 27.8013 31.5049 26.9527 28.9377 26.3856C27.949 26.1673 27.3246 25.1888 27.5429 24.2001C27.7613 23.2114 28.7399 22.587 29.7286 22.8053C32.5945 23.4384 35.1351 24.4355 37.0077 25.7511C38.8478 27.0438 40.3332 28.8694 40.3332 31.1666C40.3332 32.7757 39.5918 34.1705 38.5312 35.2848C37.4796 36.39 36.0446 37.3015 34.4117 38.0273C31.141 39.481 26.7513 40.3333 21.9998 40.3333C17.2484 40.3333 12.8586 39.481 9.58799 38.0273C7.955 37.3015 6.52 36.39 5.46843 35.2848C4.40787 34.1705 3.6665 32.7757 3.6665 31.1666C3.6665 28.8694 5.15193 27.0438 6.99191 25.7511C8.86452 24.4355 11.4052 23.4384 14.2711 22.8053C15.2598 22.587 16.2383 23.2114 16.4567 24.2001Z" fill="black"/>
<path fill-rule="evenodd" clip-rule="evenodd" d="M23.8332 21.8166V29.3333C23.8332 30.3459 23.0124 31.1667 21.9998 31.1667C20.9873 31.1667 20.1665 30.3459 20.1665 29.3333V21.8166C15.9824 20.9673 12.8332 17.2681 12.8332 12.8333C12.8332 7.77072 16.9372 3.66666 21.9998 3.66666C27.0624 3.66666 31.1665 7.77072 31.1665 12.8333C31.1665 17.2681 28.0173 20.9673 23.8332 21.8166ZM21.9998 7.33332C18.9622 7.33332 16.4998 9.79577 16.4998 12.8333C16.4998 15.8709 18.9622 18.3333 21.9998 18.3333C25.0375 18.3333 27.4998 15.8709 27.4998 12.8333C27.4998 9.79577 25.0375 7.33332 21.9998 7.33332Z" fill="#E06B7D"/>
</svg>
