<svg width="60" height="60" viewBox="0 0 60 60" fill="none" xmlns="http://www.w3.org/2000/svg">
<g clip-path="url(#clip0_14_74168)">
<path d="M59.85 14.45C59.65 14.15 59.35 13.95 58.95 13.95H41.1403C38.3959 10.8797 34.4037 8.94995 29.95 8.94995C25.4962 8.94995 21.504 10.8797 18.7596 13.95H0.950038C0.550077 13.95 0.250077 14.15 0.149999 14.55C-0.0500403 14.85 -0.0500403 15.25 0.149999 15.55L4.14996 21.55L7.90195 27.178C7.90699 27.3436 7.95527 27.508 8.04996 27.65C9.67066 30.0811 12.1031 31.9419 14.8343 33.019L11.15 45.35C10.95 46.1501 11.25 47.0501 11.9501 47.55C12.7501 48.05 13.6501 48.05 14.3501 47.55L18.95 44.25C19.25 44.0499 19.65 43.95 19.95 44.05C20.25 44.1499 20.55 44.4499 20.65 44.7499L22.5499 49.6499C22.8499 50.5499 23.65 51.0499 24.55 51.0499C24.6499 51.0499 24.6499 51.0499 24.75 51.0499C25.75 50.95 26.45 50.3499 26.75 49.4499L29.8441 38.9487C29.8795 38.9489 29.9146 38.9499 29.95 38.9499C30.0186 38.9499 30.087 38.9483 30.1554 38.9474L33.25 49.4499C33.55 50.3499 34.35 51.0499 35.25 51.0499H35.35C36.25 51.0499 36.9499 50.4499 37.35 49.6499L39.25 44.7499C39.3499 44.3499 39.6499 44.1499 39.9499 44.05C40.3499 43.95 40.6499 44.0499 40.9499 44.25L45.5498 47.55C46.3499 48.05 47.2499 48.05 47.9498 47.55C48.6498 47.05 48.9498 46.15 48.7499 45.35L45.083 32.8214C47.8738 31.7447 50.228 29.8829 51.8498 27.45L55.8498 21.45L59.8498 15.45C60.05 15.15 60.05 14.75 59.85 14.45ZM29.95 10.95C36.6945 10.95 42.2102 16.1271 42.8812 22.618C42.8859 22.665 42.89 22.7119 42.8943 22.7589C42.8993 22.8139 42.9047 22.869 42.909 22.9243C42.9362 23.2731 42.95 23.6183 42.95 23.95C42.95 24.0637 42.9484 24.1759 42.9458 24.2872C42.9266 25.0464 42.8423 25.7887 42.6995 26.5096C42.679 26.5547 42.6622 26.6016 42.6502 26.6501L41.9502 28.9501C41.9502 28.9577 41.9502 28.9652 41.9502 28.9728C39.9923 33.6661 35.3679 36.9501 29.9502 36.9501C29.2236 36.9501 28.5116 36.8901 27.8181 36.7765C23.3955 35.9789 19.6791 33.036 17.9502 28.8501C17.9317 28.8132 17.9099 28.7797 17.8881 28.7462L17.2501 26.6501C17.2397 26.6292 17.2284 26.6087 17.2168 26.5884C17.2119 26.5646 17.2069 26.5408 17.2022 26.5169C17.1882 26.4469 17.1748 26.3766 17.162 26.3061C17.1541 26.2629 17.1466 26.2195 17.1393 26.176C17.1292 26.1172 17.1193 26.0583 17.1101 25.9992C17.0972 25.9165 17.085 25.8335 17.0737 25.7502C17.0711 25.7307 17.0682 25.7113 17.0657 25.6918C16.9888 25.1046 16.9501 24.5082 16.9501 23.9502C16.9501 23.118 17.0367 22.2847 17.2077 21.3735C17.2248 21.3335 17.2395 21.2926 17.2501 21.2502C17.6501 19.1502 18.6502 17.2502 19.9501 15.6501C20.0243 15.576 20.0862 15.4956 20.1345 15.4106C22.5144 12.6748 26.0239 10.95 29.95 10.95ZM17.25 15.95C16.45 17.15 15.85 18.5501 15.45 19.95H5.45004L2.85 15.95H17.25ZM15.05 21.95C14.9501 22.65 14.9501 23.25 14.9501 23.9501C14.9501 24.6501 14.9501 25.3501 15.05 25.9501H9.45L6.84996 21.9501L15.05 21.95ZM11.05 27.95H15.4876C15.6109 28.3984 15.7545 28.8381 15.9171 29.2685L15.45 30.95C13.75 30.35 12.25 29.25 11.05 27.95ZM24.75 48.95C24.65 48.95 24.65 49.05 24.55 49.05C24.3499 49.05 24.3499 48.95 24.3499 48.95L22.45 44.0501C22.15 43.0501 21.3499 42.4501 20.4499 42.1501C20.1499 42.0501 19.8499 42.0501 19.5499 42.0501C18.9499 42.0501 18.3499 42.2502 17.7499 42.6501L13.15 45.9501L17.0298 32.7019C17.0365 32.6846 17.044 32.6681 17.05 32.6502L17.2522 31.9536C19.5525 35.6517 23.4513 38.1504 27.75 38.8502L24.75 48.95ZM42.15 42.75C41.35 42.15 40.35 41.9499 39.45 42.2499C38.55 42.45 37.85 43.15 37.45 44.05L35.55 48.9499C35.55 48.9499 35.45 49.0499 35.35 49.0499C35.1499 49.0499 35.1499 48.9499 35.1499 48.9499L32.1499 38.8499C36.55 38.1499 40.3499 35.6498 42.6499 32.0498L46.75 46.0499L42.15 42.75ZM44.5519 31.0066L44.0169 29.1787C44.1539 28.8091 44.2773 28.4328 44.3853 28.05H48.85C47.6742 29.3238 46.2097 30.3089 44.5519 31.0066ZM50.45 25.95H44.85C44.95 25.35 44.95 24.65 44.95 23.95C44.95 23.2499 44.95 22.65 44.85 21.9499H53.15L50.45 25.95ZM54.45 19.95H44.45C44.1833 19.0167 43.8258 18.1281 43.3813 17.2541C43.1707 16.8314 42.9408 16.4203 42.6927 16.0216C42.6782 15.9978 42.6647 15.9739 42.65 15.95H57.15L54.45 19.95Z" fill="#1A1A1A"/>
<path d="M21.05 29.45C21.2501 29.75 21.5501 29.95 21.95 29.95H26.45L29.15 33.55C29.3501 33.85 29.6501 33.95 29.9501 33.95C30.2501 33.95 30.5501 33.85 30.7501 33.55L33.4501 29.95H37.9501C38.3501 29.95 38.6501 29.75 38.8501 29.45C39.0501 29.15 39.0501 28.75 38.8501 28.45L36.4501 24.1501L38.8501 19.45C39.0501 19.15 39.0501 18.7501 38.8501 18.4501C38.6501 18.1501 38.2501 17.95 37.9501 17.95H33.4501L30.7501 14.35C30.5501 14.05 30.2501 13.9501 29.9501 13.9501C29.6501 13.9501 29.3501 14.1501 29.15 14.35L26.45 17.95H21.95C21.65 17.95 21.2501 18.1501 21.05 18.4501C20.9501 18.7501 20.85 19.15 21.05 19.45L23.45 24.1501L21.05 28.45C20.85 28.7499 20.85 29.15 21.05 29.45ZM26.9499 19.95C27.2499 19.95 27.5499 19.85 27.75 19.55L29.9499 16.65L32.1499 19.55C32.3499 19.85 32.6499 19.95 32.9499 19.95H36.2499L34.35 23.75C34.1499 24.05 34.1499 24.35 34.35 24.65L36.2499 27.95H32.9499C32.6499 27.95 32.3499 28.05 32.1499 28.35L29.9499 31.25L27.75 28.35C27.5499 28.05 27.2499 27.95 26.9499 27.95H23.6499L25.4499 24.65C25.5499 24.35 25.65 24.05 25.4499 23.75L23.55 19.95H26.9499Z" fill="#D8465C"/>
</g>
<defs>
<clipPath id="clip0_14_74168">
<rect width="60" height="60" fill="white"/>
</clipPath>
</defs>
</svg>
