<svg width="17" height="18" viewBox="0 0 17 18" fill="none" xmlns="http://www.w3.org/2000/svg">
<path d="M3.56031 5.34957C3.64601 4.67177 4.52688 3.75058 5.22597 3.85279L5.22485 3.85168C5.90519 3.98096 6.44375 5.15193 6.74743 5.67846C6.96261 6.06049 6.82288 6.44755 6.62218 6.61087C6.35143 6.82909 5.92805 7.1302 6.01688 7.43252C6.17481 7.96997 8.04981 9.84497 8.97201 10.378C9.32106 10.5797 9.57418 10.0476 9.79033 9.775C9.94738 9.5653 10.3348 9.43997 10.7159 9.64697C11.2852 9.97847 11.8214 10.3637 12.3173 10.7975C12.565 11.0045 12.6231 11.3104 12.4515 11.6337C12.1492 12.2032 11.275 12.9542 10.6405 12.8015C9.53211 12.5351 5.04981 10.7975 3.61005 5.76348C3.52908 5.52533 3.54947 5.4353 3.56031 5.34957Z" fill="#D8465C"/>
<path fill-rule="evenodd" clip-rule="evenodd" d="M8.25 16.5C7.3323 16.5 6.82455 16.4015 6 16.125L4.42082 16.9146C3.42347 17.4133 2.25 16.688 2.25 15.5729V13.875C0.634912 12.369 0 10.6325 0 8.25C0 3.69365 3.69365 0 8.25 0C12.8063 0 16.5 3.69365 16.5 8.25C16.5 12.8063 12.8063 16.5 8.25 16.5ZM3.75 13.2227L3.27296 12.7779C2.01815 11.6079 1.5 10.2998 1.5 8.25C1.5 4.52208 4.52208 1.5 8.25 1.5C11.978 1.5 15 4.52208 15 8.25C15 11.978 11.978 15 8.25 15C7.51073 15 7.164 14.9332 6.47696 14.7029L5.88635 14.5048L3.75 15.5729V13.2227Z" fill="#D8465C"/>
</svg>
