<svg width="18" height="14" viewBox="0 0 18 14" fill="none" xmlns="http://www.w3.org/2000/svg">
<path fill-rule="evenodd" clip-rule="evenodd" d="M7.15383 9.58611V3.9743C8.93789 4.91173 10.3196 5.8173 11.9538 6.79363C10.606 7.62834 8.93789 8.56491 7.15383 9.58611ZM17.0964 1.18328C16.7887 0.730523 16.2642 0.378089 15.7058 0.261409C14.0644 -0.086641 3.82476 -0.087631 2.18432 0.261409C1.73652 0.355149 1.33776 0.581732 0.995223 0.933771C-0.448086 2.42967 0.00417867 10.4517 0.352072 11.7511C0.498365 12.3136 0.687484 12.7192 0.925657 12.9855C1.23252 13.3375 1.65266 13.5799 2.13525 13.6886C3.48668 14.0008 10.449 14.1753 15.6772 13.7355C16.1589 13.6418 16.5853 13.3916 16.9216 13.0246C18.2561 11.5347 18.1651 3.06213 17.0964 1.18328Z" fill="#D8465C"/>
</svg>
